# xmcd
#
# Track frame offsets:
#	150
#	47677
#	78580
#	98909
#	115196
#	132341
#	154332
#	186771
#	204259
#	220424
#	238702
#	256877
#	273337
#	301658
#
# Disc length: 4276
#
# Revision: 1
# Processed by: cddbd v1.5.1PL0 Copyright (c) Steve Scherf et al.
# Submitted via: FreeRIP 2.11 
# Normalized: r0:TRMNUM
#
DISCID=bf10b20e
DTITLE=La Barra - La Barra 7 Años
DYEAR=2001
DGENRE=Cuarteto Cordobes
TTITLE0=A que vuelve ;Pa' los que sufren - Hagamos derroche
TTITLE1=Enamorate de mí  - Morir de amor
TTITLE2=La fuerza del corazón
TTITLE3=No te pareces a nadie
TTITLE4=Casi la mato
TTITLE5=Peligroso amor
TTITLE6=Fiesta ,fiesta ,fiesta... - Amor infiel;Se que vas a llorar.
TTITLE7=Quererte a ti
TTITLE8=Ni tu ,ni yo
TTITLE9=No se detengan   - La carta
TTITLE10=Te felicito
TTITLE11=Como le explico
TTITLE12=Por ese amante  - No te das cuenta  - Mi mundo tú
TTITLE13=Bailando , bailando ... - Romperé
EXTD=Grabado en vivo en la Vieja Usina
EXTT0=
EXTT1=
EXTT2=
EXTT3=
EXTT4=
EXTT5=
EXTT6=
EXTT7=
EXTT8=
EXTT9=
EXTT10=
EXTT11=
EXTT12=
EXTT13=
PLAYORDER=
